# xmcd CD database file
#
# Track frame offsets:
#	150
#	18026
#	29329
#	40645
#	54114
#	66828
#	78474
#	96257
#	109333
#	118862
#	133674
#	148895
#	166108
#	185509
#
# Disc length: 2699 seconds
#
# Revision: 0
# Processed by: cddbd v1.4PL0 Copyright (c) Steve Scherf et al.
# Submitted via: CDex 1.40Beta8
#
DISCID=b90a890e
DTITLE=Sandra Vanreys - Country feelings from me to you
DYEAR=1999
DGENRE=Country
TTITLE0=The end of the line
TTITLE1=Silver threads and golden needles
TTITLE2=The night closes on
TTITLE3=One good reason
TTITLE4=Sweet dreams
TTITLE5=When my baby swings
TTITLE6=Wondering
TTITLE7=Louisiana South
TTITLE8=Lovesick blues
TTITLE9=I love you
TTITLE10=Southern streamline
TTITLE11=Prince charming
TTITLE12=You haven't told her more
TTITLE13=In the shadow of love
EXTD=YEAR: 1999 ID3G: 2
EXTT0=
EXTT1=
EXTT2=
EXTT3=
EXTT4=
EXTT5=
EXTT6=
EXTT7=
EXTT8=
EXTT9=
EXTT10=
EXTT11=
EXTT12=
EXTT13=
PLAYORDER=
